<svg width="640" height="448" viewBox="0 0 640 448" fill="none" xmlns="http://www.w3.org/2000/svg">
<path d="M367.75 138.304C370.212 142.193 371.584 146.511 371.584 151.059C371.584 168.157 352.202 182.021 328.303 182.021C304.403 182.021 284.995 168.159 284.995 151.059C284.995 142.545 289.799 134.837 297.573 129.241C292.859 115.694 285.816 89.9805 330.155 89.9805C389.299 89.9805 367.741 135.83 367.741 138.084L367.75 138.304Z" fill="#EDE0C4"/>
<path d="M178.97 173.521L182.023 151.22L354.562 157.883L461.035 164.394C487.964 165.59 506.4 192.042 498.205 217.72L466.496 317.054L387.988 318.372L358.872 259.31C355.129 251.72 353.176 243.372 353.162 234.909L353.127 213.12L178.97 173.521Z" fill="#E9EE0D"/>
<path d="M403.586 145.454C399.783 146.247 395.876 146.424 392.016 145.977C394.625 148.259 396.713 151.075 398.141 154.233C399.569 157.391 400.303 160.819 400.294 164.285C400.294 177.648 389.573 188.482 376.345 188.482C363.117 188.482 352.401 177.636 352.401 164.273C352.401 151.357 362.419 140.802 375.037 140.114C366.464 135.114 359.174 127.564 354.153 119.509C343.465 102.355 367.31 89.9781 389.542 78.2211C407.879 68.5242 430.371 89.9781 436.371 105.02C443.391 122.638 423.893 141.197 403.586 145.454Z" fill="#56303C"/>
<path d="M419.686 138.676L425.012 151.518C426.375 154.802 428.618 157.645 431.495 159.734C434.372 161.823 437.77 163.076 441.314 163.356L446.075 163.729L411.644 239.519L388.485 160.591C384.217 161.425 379.792 160.545 376.168 158.141C372.545 155.737 370.013 152.002 369.122 147.746L361.237 110.081C361.237 110.081 371.021 125.798 403.125 118.809C405.963 118.194 408.823 119.755 410.457 122.144L413.179 126.164L412.666 122.853C412.389 121.093 412.72 119.292 413.602 117.744C414.485 116.197 415.868 114.996 417.524 114.339V114.339C419.426 113.584 421.547 113.601 423.436 114.387C425.325 115.172 426.833 116.664 427.639 118.544L428.304 120.095C429.082 121.908 429.148 123.947 428.491 125.807C427.834 127.667 426.5 129.211 424.756 130.133L422.316 131.419C421.047 132.079 420.073 133.191 419.586 134.535C419.099 135.879 419.135 137.357 419.686 138.676V138.676Z" fill="#B4702F"/>
<path d="M385.621 130.944C385.858 129.641 387.104 128.295 388.897 127.579C389.715 127.245 390.594 127.084 391.477 127.106C392.213 127.108 392.933 127.32 393.554 127.716" stroke="#56303C" stroke-miterlimit="10" stroke-linecap="round"/>
<path d="M367.344 133.569C367.987 132.448 369.493 131.661 371.248 131.661C373.003 131.661 374.465 132.425 375.125 133.52" stroke="#56303C" stroke-miterlimit="10" stroke-linecap="round"/>
<path d="M380.799 146.637C380.799 146.637 385.843 148.093 390.888 142.774" stroke="#56303C" stroke-miterlimit="10" stroke-linecap="round"/>
<path d="M389.308 141.715L393.206 143.888" stroke="#56303C" stroke-miterlimit="10" stroke-linecap="round"/>
<path d="M364.699 125.921L371.012 125.807C372.517 125.775 373.986 126.27 375.165 127.206C376.344 128.141 377.16 129.459 377.471 130.932L379.363 139.837C379.453 140.384 379.743 140.879 380.177 141.225C380.611 141.571 381.158 141.744 381.712 141.71L384.122 141.561" stroke="#56303C" stroke-miterlimit="10" stroke-linecap="round"/>
<path d="M421.095 118.78C421.095 118.78 416.429 120.214 418.397 126.519" stroke="#56303C" stroke-width="7.06" stroke-miterlimit="10" stroke-linecap="round"/>
<path d="M422.351 122.986L418.56 121.85" stroke="#56303C" stroke-width="14" stroke-miterlimit="10" stroke-linecap="round"/>
<path d="M388.485 160.591C388.485 160.591 398.565 158.632 403.44 151.473L392.409 173.963L388.485 160.591Z" fill="#56303C"/>
<path d="M442.495 175.789C444.044 177.09 445.288 178.716 446.141 180.551C446.993 182.386 447.433 184.385 447.428 186.408C447.428 194.033 441.31 200.213 433.765 200.213C426.22 200.213 420.102 194.033 420.102 186.408C420.098 184.385 420.537 182.386 421.39 180.551C422.242 178.716 423.487 177.091 425.035 175.789C420.533 173.991 416.675 170.881 413.961 166.864C411.248 162.847 409.803 158.107 409.816 153.259C409.816 139.896 420.539 129.061 433.765 129.061C446.991 129.061 457.714 139.891 457.714 153.259C457.727 158.107 456.283 162.847 453.569 166.864C450.855 170.882 446.997 173.991 442.495 175.789V175.789Z" fill="#56303C"/>
<path d="M443.287 252.939L460.614 313.166C470.074 346.055 445.39 378.843 411.169 378.843H234.363C213.371 378.843 192.95 372.005 176.191 359.363C159.431 346.722 147.246 328.966 141.478 308.781L108.677 194C102.527 172.506 118.674 151.109 141.029 151.109H308.031C370.775 151.109 425.942 192.643 443.287 252.939Z" fill="#CFCAC0"/>
<path d="M360.818 252.636L241.191 337.243C226.809 347.413 231.906 370.241 249.161 373.781" stroke="#56303C" stroke-miterlimit="10" stroke-linecap="round"/>
<path d="M325.583 283.203L349.336 276.874" stroke="#56303C" stroke-miterlimit="10" stroke-linecap="round"/>
<path d="M441.336 291.667L455.545 220.979H497.164L466.352 317.506L441.336 291.667Z" fill="#E9EE0D"/>
<path d="M441.336 291.667L455.545 220.979" stroke="#56303C" stroke-miterlimit="10" stroke-linecap="round"/>
<path d="M461.335 338.957L349.485 348.602L462.224 323.01L462.461 323.194C462.912 328.475 462.532 333.794 461.335 338.957Z" fill="#56303C"/>
<path d="M437.991 292.54L342.586 326.522C339.567 327.596 337.039 329.725 335.467 332.517L324.275 352.384L338.525 357.512C339.888 358.004 341.38 357.999 342.74 357.498C344.1 356.997 345.238 356.032 345.956 354.773L349.485 348.598L450.657 331.164C454.272 330.541 457.648 328.937 460.415 326.528C463.183 324.119 465.236 320.997 466.351 317.501C470.497 304.51 460.746 291.249 447.109 291.355L444.576 291.374C442.331 291.392 440.106 291.786 437.991 292.54Z" fill="#B4702F"/>
<path d="M328.615 353.257L337.626 337.257" stroke="#56303C" stroke-miterlimit="10" stroke-linecap="round"/>
<path d="M332.953 354.558L341.964 338.558" stroke="#56303C" stroke-miterlimit="10" stroke-linecap="round"/>
<path d="M337.725 356.294L346.736 340.294" stroke="#56303C" stroke-miterlimit="10" stroke-linecap="round"/>
<path d="M364.108 346.665C368.058 345.987 370.378 343.061 371.395 339.185" stroke="#56303C" stroke-miterlimit="10" stroke-linecap="round"/>
<path d="M447.376 221.847L452.114 238.053" stroke="#56303C" stroke-miterlimit="10" stroke-linecap="round"/>
<path d="M182.57 151.109L182.023 150.421C180.164 148.11 177.811 146.246 175.137 144.966C172.462 143.685 169.535 143.02 166.57 143.02H150.279C148.741 143.019 147.239 143.484 145.972 144.355C144.705 145.226 143.733 146.461 143.183 147.897L139.021 158.777C138.821 159.3 138.751 159.864 138.817 160.421C138.884 160.977 139.084 161.509 139.402 161.971C139.72 162.433 140.145 162.81 140.641 163.071C141.137 163.332 141.689 163.469 142.249 163.469H156.712C157.989 163.469 159.24 163.106 160.319 162.424C161.399 161.742 162.263 160.767 162.812 159.614L164.921 155.172C165.5 153.954 166.413 152.924 167.553 152.203C168.693 151.482 170.015 151.1 171.364 151.1L182.57 151.109Z" fill="#B4702F"/>
<path d="M158.275 151.024L154.619 163.043" stroke="#111111" stroke-miterlimit="10" stroke-linecap="round"/>
<path d="M153.07 151.024L149.413 163.043" stroke="#56303C" stroke-miterlimit="10" stroke-linecap="round"/>
<path d="M147.429 151.024L143.772 163.043" stroke="#56303C" stroke-miterlimit="10" stroke-linecap="round"/>
<path d="M388.015 232.582L269.913 315.94L281.398 276.341L249.845 276.083V190.33C249.845 178.74 237.61 171.834 227.923 176.749C250.115 160.955 277.47 151.109 307.064 151.109C340.627 151.109 371.315 162.497 394.85 181.323C397.945 185.064 400.234 189.405 401.573 194.072C402.911 198.739 403.271 203.633 402.629 208.446C401.987 213.259 400.358 217.887 397.843 222.04C395.328 226.194 391.982 229.783 388.015 232.582V232.582Z" fill="#28AE5E"/>
<path d="M367.344 164.297L329.738 247.362L279.083 154.084C288.282 152.106 297.666 151.109 307.076 151.109C328.75 151.109 349.217 155.86 367.344 164.297Z" fill="white"/>
<path d="M322.255 196.278H328.655" stroke="#56303C" stroke-miterlimit="10" stroke-linecap="round"/>
<path d="M330.208 200.672C332.278 199.814 333.26 197.442 332.403 195.372C331.546 193.302 329.173 192.32 327.104 193.177C325.034 194.034 324.051 196.407 324.908 198.477C325.766 200.546 328.138 201.529 330.208 200.672Z" fill="#A0D6FF"/>
<path d="M322.255 221.442H328.655" stroke="#56303C" stroke-miterlimit="10" stroke-linecap="round"/>
<path d="M328.655 225.316C330.895 225.316 332.711 223.5 332.711 221.26C332.711 219.02 330.895 217.204 328.655 217.204C326.415 217.204 324.599 219.02 324.599 221.26C324.599 223.5 326.415 225.316 328.655 225.316Z" fill="#A0D6FF"/>
<path d="M363.481 175.146C359.879 181.879 353.134 186.408 345.41 186.408C337.08 186.408 329.89 181.139 326.55 173.521C323.208 181.139 316.018 186.408 307.688 186.408C300.238 186.408 295.002 182.196 291.315 175.855" stroke="#A0D6FF" stroke-miterlimit="10" stroke-linecap="round"/>
<path d="M326.55 173.521V186.408" stroke="#A0D6FF" stroke-miterlimit="10" stroke-linecap="round"/>
<path d="M329.731 246.494V261.375" stroke="#56303C" stroke-miterlimit="10" stroke-linecap="round"/>
<path d="M283.042 267.756L304.822 328.643" stroke="#56303C" stroke-miterlimit="10" stroke-linecap="round"/>
<path d="M286.133 318.022L292.157 253.712" stroke="#56303C" stroke-miterlimit="10" stroke-linecap="round"/>
<path d="M280.097 244.573C280.097 247.726 274.388 252.503 274.388 252.503C274.388 252.503 268.678 247.726 268.678 244.573C268.678 243.059 269.28 241.607 270.351 240.536C271.421 239.465 272.873 238.864 274.388 238.864C275.902 238.864 277.354 239.465 278.425 240.536C279.496 241.607 280.097 243.059 280.097 244.573V244.573Z" fill="#E9EE0D"/>
<path d="M268.676 263.444C268.676 260.292 274.385 255.517 274.385 255.517C274.385 255.517 280.095 260.292 280.095 263.444C280.095 264.959 279.493 266.411 278.423 267.481C277.352 268.552 275.9 269.154 274.385 269.154C272.871 269.154 271.419 268.552 270.348 267.481C269.278 266.411 268.676 264.959 268.676 263.444V263.444Z" fill="#E9EE0D"/>
<path d="M265.459 248.301C268.612 248.301 273.387 254.01 273.387 254.01C273.387 254.01 268.612 259.717 265.459 259.717C264.7 259.732 263.945 259.596 263.239 259.316C262.533 259.036 261.89 258.618 261.347 258.087C260.805 257.555 260.374 256.921 260.08 256.22C259.785 255.52 259.634 254.768 259.634 254.009C259.634 253.249 259.785 252.497 260.08 251.797C260.374 251.097 260.805 250.462 261.347 249.931C261.89 249.399 262.533 248.981 263.239 248.701C263.945 248.421 264.7 248.285 265.459 248.301V248.301Z" fill="#E9EE0D"/>
<path d="M283.316 259.717C280.163 259.717 275.388 254.01 275.388 254.01C275.388 254.01 280.163 248.301 283.316 248.301C284.075 248.285 284.83 248.421 285.536 248.701C286.242 248.981 286.886 249.399 287.428 249.931C287.971 250.462 288.402 251.097 288.696 251.797C288.99 252.497 289.142 253.249 289.142 254.009C289.142 254.768 288.99 255.52 288.696 256.22C288.402 256.921 287.971 257.555 287.428 258.087C286.886 258.618 286.242 259.036 285.536 259.316C284.83 259.596 284.075 259.732 283.316 259.717V259.717Z" fill="#E9EE0D"/>
<path d="M274.388 257.428C276.275 257.428 277.805 255.897 277.805 254.01C277.805 252.122 276.275 250.592 274.388 250.592C272.5 250.592 270.97 252.122 270.97 254.01C270.97 255.897 272.5 257.428 274.388 257.428Z" fill="#56303C"/>
<path d="M297.793 224.744C297.793 227.897 292.083 232.672 292.083 232.672C292.083 232.672 286.374 227.897 286.374 224.744C286.374 223.23 286.976 221.778 288.046 220.707C289.117 219.636 290.569 219.035 292.083 219.035C293.598 219.035 295.05 219.636 296.121 220.707C297.191 221.778 297.793 223.23 297.793 224.744V224.744Z" fill="#E9EE0D"/>
<path d="M286.374 243.606C286.374 240.453 292.083 235.678 292.083 235.678C292.083 235.678 297.793 240.453 297.793 243.606C297.793 244.356 297.645 245.098 297.358 245.791C297.071 246.483 296.651 247.113 296.121 247.643C295.59 248.173 294.961 248.594 294.268 248.881C293.576 249.168 292.833 249.315 292.083 249.315C291.334 249.315 290.591 249.168 289.899 248.881C289.206 248.594 288.577 248.173 288.046 247.643C287.516 247.113 287.096 246.483 286.809 245.791C286.522 245.098 286.374 244.356 286.374 243.606V243.606Z" fill="#E9EE0D"/>
<path d="M283.155 228.469C286.308 228.469 291.083 234.176 291.083 234.176C291.083 234.176 286.308 239.886 283.155 239.886C282.396 239.901 281.641 239.765 280.935 239.485C280.229 239.205 279.586 238.787 279.043 238.255C278.501 237.724 278.07 237.089 277.775 236.389C277.481 235.689 277.33 234.937 277.33 234.177C277.33 233.418 277.481 232.666 277.775 231.966C278.07 231.265 278.501 230.631 279.043 230.099C279.586 229.568 280.229 229.15 280.935 228.87C281.641 228.59 282.396 228.454 283.155 228.469V228.469Z" fill="#E9EE0D"/>
<path d="M301.012 239.888C297.859 239.888 293.084 234.179 293.084 234.179C293.084 234.179 297.859 228.469 301.012 228.469C301.771 228.454 302.526 228.59 303.232 228.87C303.938 229.15 304.581 229.568 305.124 230.099C305.666 230.631 306.097 231.265 306.392 231.966C306.686 232.666 306.837 233.418 306.837 234.177C306.837 234.937 306.686 235.689 306.392 236.389C306.097 237.089 305.666 237.724 305.124 238.255C304.581 238.787 303.938 239.205 303.232 239.485C302.526 239.765 301.771 239.901 301.012 239.886V239.888Z" fill="#E9EE0D"/>
<path d="M292.084 237.74C294.051 237.74 295.645 236.146 295.645 234.179C295.645 232.211 294.051 230.617 292.084 230.617C290.116 230.617 288.522 232.211 288.522 234.179C288.522 236.146 290.116 237.74 292.084 237.74Z" fill="#56303C"/>
<path d="M316.387 252.135C316.387 255.008 311.184 259.36 311.184 259.36C311.184 259.36 305.981 255.008 305.981 252.135C305.981 250.755 306.529 249.431 307.505 248.455C308.481 247.479 309.804 246.931 311.184 246.931C312.564 246.931 313.887 247.479 314.863 248.455C315.839 249.431 316.387 250.755 316.387 252.135Z" fill="#A0D6FF"/>
<path d="M305.986 269.329C305.986 266.458 311.189 262.106 311.189 262.106C311.189 262.106 316.392 266.458 316.392 269.329C316.392 270.709 315.844 272.032 314.868 273.008C313.892 273.984 312.569 274.532 311.189 274.532C309.809 274.532 308.485 273.984 307.51 273.008C306.534 272.032 305.986 270.709 305.986 269.329Z" fill="#A0D6FF"/>
<path d="M303.05 255.531C305.924 255.531 310.276 260.734 310.276 260.734C310.276 260.734 305.924 265.937 303.05 265.937C301.67 265.937 300.347 265.389 299.371 264.413C298.395 263.437 297.847 262.114 297.847 260.734C297.847 259.354 298.395 258.031 299.371 257.055C300.347 256.079 301.67 255.531 303.05 255.531Z" fill="#A0D6FF"/>
<path d="M319.322 265.932C316.449 265.932 312.097 260.729 312.097 260.729C312.097 260.729 316.449 255.526 319.322 255.526C320.702 255.526 322.026 256.074 323.002 257.05C323.977 258.026 324.526 259.349 324.526 260.729C324.526 262.109 323.977 263.433 323.002 264.408C322.026 265.384 320.702 265.932 319.322 265.932Z" fill="#A0D6FF"/>
<path d="M312.428 263.73C314.084 263.044 314.87 261.146 314.184 259.49C313.498 257.835 311.6 257.048 309.944 257.734C308.289 258.42 307.503 260.318 308.188 261.974C308.874 263.63 310.772 264.416 312.428 263.73Z" fill="#56303C"/>
<path d="M281.398 276.341L269.913 315.94L244.509 333.87C214.392 355.128 172.825 333.589 172.825 296.726V275.223C172.825 237.781 194.523 200.525 227.932 176.749C237.629 171.834 249.855 178.738 249.855 190.329V276.084L281.398 276.341Z" fill="white"/>
<path d="M269.913 315.94C269.913 315.94 259.104 303.081 268.286 284.993C269.625 282.381 271.66 280.19 274.166 278.663C276.673 277.136 279.553 276.333 282.488 276.341H293.181C299.235 276.341 305.159 278.097 310.236 281.396L316.995 285.788C317.591 286.174 318.097 286.684 318.48 287.281C318.864 287.879 319.115 288.551 319.219 289.254C319.322 289.957 319.275 290.673 319.08 291.356C318.885 292.039 318.547 292.672 318.088 293.214L308.121 304.995C307.28 305.988 306.088 306.619 304.794 306.755C303.499 306.891 302.202 306.522 301.173 305.725L298.782 303.871C297.158 302.613 295.173 301.909 293.119 301.864C291.065 301.818 289.05 302.433 287.372 303.618L269.913 315.94Z" fill="#B4702F"/>
<path d="M303.417 284.643L317.286 293.926" stroke="#56303C" stroke-miterlimit="10" stroke-linecap="round"/>
<path d="M299.947 288.548L313.816 297.831" stroke="#56303C" stroke-miterlimit="10" stroke-linecap="round"/>
<path d="M296.043 293.32L309.912 302.603" stroke="#56303C" stroke-miterlimit="10" stroke-linecap="round"/>
<path d="M213.891 276.083H249.84C249.84 276.083 232.795 299.621 252.286 328.378" stroke="#A0D6FF" stroke-miterlimit="10" stroke-linecap="round"/>
<path d="M257.432 315.94C258.931 315.94 260.145 314.726 260.145 313.227C260.145 311.729 258.931 310.515 257.432 310.515C255.934 310.515 254.72 311.729 254.72 313.227C254.72 314.726 255.934 315.94 257.432 315.94Z" stroke="#A0D6FF" stroke-miterlimit="10" stroke-linecap="round"/>
<path d="M227.923 276.083L217.396 267.418" stroke="#A0D6FF" stroke-miterlimit="10" stroke-linecap="round"/>
<path d="M351.218 163.351L338.657 169.453C336.23 170.633 333.567 171.246 330.869 171.246C328.17 171.246 325.507 170.633 323.081 169.453L310.538 163.351C306.946 161.604 304.044 158.701 302.299 155.108C300.554 151.515 300.066 147.439 300.915 143.536H296.873C294.825 143.536 292.862 142.723 291.414 141.275C289.966 139.827 289.153 137.864 289.153 135.816V133.432C289.154 131.67 289.758 129.962 290.864 128.59C291.97 127.219 293.512 126.267 295.234 125.892C296.956 125.518 298.753 125.743 300.329 126.531C301.905 127.32 303.164 128.623 303.897 130.225L305.044 125.105C316.714 124.029 326.387 117.191 330.178 107.951V98.0549C330.189 97.8593 330.274 97.6754 330.417 97.5408C330.559 97.4062 330.747 97.3312 330.943 97.3312C331.139 97.3312 331.328 97.4062 331.47 97.5408C331.612 97.6754 331.698 97.8593 331.708 98.0549V105.928C334.783 115.947 344.596 123.593 356.712 125.015L360.837 143.422C361.714 147.342 361.241 151.443 359.495 155.06C357.749 158.677 354.832 161.599 351.218 163.351V163.351Z" fill="#B4702F"/>
<path d="M321.904 127.153C325.099 126.172 327.398 124.431 327.04 123.264C326.682 122.098 323.801 121.949 320.606 122.93C317.411 123.912 315.111 125.653 315.469 126.82C315.828 127.986 318.708 128.135 321.904 127.153Z" fill="#EDE0C4"/>
<path d="M347.548 126.867C347.906 125.701 345.606 123.96 342.411 122.978C339.216 121.996 336.335 122.146 335.977 123.312C335.619 124.478 337.918 126.219 341.114 127.201C344.309 128.183 347.189 128.033 347.548 126.867Z" fill="#EDE0C4"/>
<path d="M339.974 137.571C340.618 136.45 342.124 135.665 343.879 135.665H345.646" stroke="#56303C" stroke-miterlimit="10" stroke-linecap="round"/>
<path d="M321.782 137.571C321.139 136.45 319.632 135.665 317.877 135.665H316.113" stroke="#56303C" stroke-miterlimit="10" stroke-linecap="round"/>
<path d="M324.457 151.459C324.457 151.459 330.606 154.354 337.356 151.459" stroke="#56303C" stroke-miterlimit="10" stroke-linecap="round"/>
<path d="M336.829 149.754L339.102 152.958" stroke="#56303C" stroke-miterlimit="10" stroke-linecap="round"/>
<path d="M325.169 149.68L322.657 152.746" stroke="#56303C" stroke-miterlimit="10" stroke-linecap="round"/>
<path d="M327.151 161.79C328.181 161.19 329.35 160.868 330.543 160.855C331.735 160.843 332.91 161.14 333.953 161.719" stroke="#56303C" stroke-miterlimit="10" stroke-linecap="round"/>
<path d="M334.561 129.024C333.314 131.528 331.687 137.571 334.088 143.032" stroke="#56303C" stroke-miterlimit="10" stroke-linecap="round"/>
<path d="M326.439 145.662C326.439 143.735 328.428 142.171 330.878 142.171C333.329 142.171 335.318 143.735 335.318 145.662" stroke="#56303C" stroke-miterlimit="10" stroke-linecap="round"/>
<path d="M300.236 136.618C300.236 136.618 300.931 131.788 294.392 130.875" stroke="#56303C" stroke-miterlimit="10" stroke-linecap="round"/>
<path d="M295.898 135.96L298.543 133.016" stroke="#56303C" stroke-miterlimit="10" stroke-linecap="round"/>
<path d="M326.283 137.571H335.218" stroke="#8CD6FF" stroke-linecap="round" stroke-linejoin="round"/>
<path d="M312.856 129.568H322.447C323.465 129.568 324.441 129.972 325.161 130.692C325.881 131.412 326.285 132.388 326.285 133.406V139.981C326.285 141.039 325.865 142.054 325.117 142.802C324.368 143.551 323.353 143.971 322.295 143.971H312.858C312.354 143.971 311.855 143.872 311.39 143.679C310.924 143.486 310.501 143.203 310.144 142.847C309.788 142.49 309.505 142.067 309.312 141.601C309.119 141.136 309.02 140.637 309.02 140.132V133.404C309.021 132.387 309.425 131.411 310.144 130.692C310.863 129.973 311.839 129.568 312.856 129.568Z" stroke="#A0D6FF" stroke-miterlimit="10" stroke-linecap="round"/>
<path d="M339.755 129.568H349.345C349.849 129.568 350.348 129.667 350.814 129.86C351.28 130.053 351.703 130.335 352.059 130.692C352.416 131.048 352.698 131.471 352.891 131.937C353.084 132.403 353.184 132.902 353.184 133.406V139.981C353.184 141.039 352.763 142.054 352.015 142.802C351.267 143.551 350.252 143.971 349.194 143.971H339.757C338.739 143.971 337.762 143.567 337.043 142.847C336.323 142.127 335.918 141.151 335.918 140.132V133.404C335.919 132.387 336.323 131.411 337.043 130.692C337.762 129.973 338.737 129.568 339.755 129.568V129.568Z" stroke="#A0D6FF" stroke-miterlimit="10" stroke-linecap="round"/>
</svg>
