<svg width="320" height="224" viewBox="0 0 320 224" fill="none" xmlns="http://www.w3.org/2000/svg">
<path d="M183.875 69.1522C185.106 71.0963 185.792 73.2556 185.792 75.5297C185.792 84.0783 176.101 91.0105 164.151 91.0105C152.202 91.0105 142.498 84.0795 142.498 75.5297C142.498 71.2725 144.899 67.4185 148.787 64.6206C146.43 57.847 142.908 44.9902 165.077 44.9902C194.649 44.9902 183.87 67.9152 183.87 69.0422L183.875 69.1522Z" fill="#EDE0C4"/>
<path d="M89.4849 86.7604L91.0115 75.6101L177.281 78.9414L230.517 82.1969C243.982 82.7953 253.2 96.021 249.102 108.86L233.248 158.527L193.994 159.186L179.436 129.655C177.564 125.86 176.588 121.686 176.581 117.455L176.563 106.56L89.4849 86.7604Z" fill="#E9EE0D"/>
<path d="M201.793 72.727C199.891 73.1236 197.938 73.2118 196.008 72.9884C197.312 74.1297 198.357 75.5373 199.071 77.1165C199.785 78.6956 200.152 80.4095 200.147 82.1425C200.147 88.8239 194.787 94.2412 188.172 94.2412C181.558 94.2412 176.2 88.818 176.2 82.1366C176.2 75.6787 181.21 70.401 187.519 70.0568C183.232 67.5569 179.587 63.7822 177.077 59.7544C171.733 51.1774 183.655 44.9891 194.771 39.1106C203.939 34.2621 215.186 44.9891 218.186 52.5101C221.695 61.3189 211.947 70.5984 201.793 72.727Z" fill="#56303C"/>
<path d="M209.843 69.3378L212.506 75.7591C213.187 77.4009 214.309 78.8226 215.748 79.867C217.186 80.9115 218.885 81.5381 220.657 81.6778L223.038 81.8646L205.822 119.76L194.243 80.2954C192.109 80.7124 189.896 80.2723 188.084 79.0703C186.272 77.8683 185.007 76.0012 184.561 73.8729L180.618 55.0408C180.618 55.0408 185.511 62.8988 201.563 59.4044C202.982 59.0969 204.411 59.8774 205.228 61.0718L206.59 63.0821L206.333 61.4266C206.195 60.5466 206.36 59.6459 206.801 58.8722C207.243 58.0986 207.934 57.4981 208.762 57.1694V57.1694C209.713 56.7921 210.773 56.8007 211.718 57.1934C212.662 57.5861 213.417 58.3318 213.82 59.2719L214.152 60.0477C214.541 60.9541 214.574 61.9737 214.245 62.9036C213.917 63.8335 213.25 64.6056 212.378 65.0665L211.158 65.7098C210.524 66.0396 210.037 66.5956 209.793 67.2675C209.55 67.9394 209.567 68.6783 209.843 69.3378V69.3378Z" fill="#B4702F"/>
<path d="M192.811 65.4721C192.929 64.8205 193.552 64.1476 194.448 63.7893C194.858 63.6225 195.297 63.542 195.739 63.5528C196.107 63.5541 196.467 63.6599 196.777 63.8579" stroke="#56303C" stroke-miterlimit="10" stroke-linecap="round"/>
<path d="M183.672 66.7847C183.993 66.2242 184.747 65.8304 185.624 65.8304C186.502 65.8304 187.232 66.2123 187.562 66.7599" stroke="#56303C" stroke-miterlimit="10" stroke-linecap="round"/>
<path d="M190.399 73.3183C190.399 73.3183 192.922 74.0468 195.444 71.3872" stroke="#56303C" stroke-miterlimit="10" stroke-linecap="round"/>
<path d="M194.654 70.8574L196.603 71.9442" stroke="#56303C" stroke-miterlimit="10" stroke-linecap="round"/>
<path d="M182.35 62.9603L185.506 62.9036C186.258 62.8876 186.993 63.1349 187.583 63.6028C188.172 64.0706 188.58 64.7297 188.736 65.4662L189.682 69.9185C189.727 70.1922 189.872 70.4395 190.089 70.6125C190.306 70.7855 190.579 70.8719 190.856 70.8551L192.061 70.7806" stroke="#56303C" stroke-miterlimit="10" stroke-linecap="round"/>
<path d="M210.548 59.3903C210.548 59.3903 208.215 60.1069 209.198 63.2595" stroke="#56303C" stroke-width="7.06" stroke-miterlimit="10" stroke-linecap="round"/>
<path d="M211.176 61.4928L209.28 60.9252" stroke="#56303C" stroke-width="10" stroke-miterlimit="10" stroke-linecap="round"/>
<path d="M194.243 80.2954C194.243 80.2954 199.283 79.3162 201.72 75.7366L196.204 86.9815L194.243 80.2954Z" fill="#56303C"/>
<path d="M221.247 87.8945C222.022 88.5452 222.644 89.358 223.07 90.2754C223.497 91.1928 223.716 92.1925 223.714 93.2041C223.714 97.0167 220.655 100.107 216.883 100.107C213.11 100.107 210.051 97.0167 210.051 93.2041C210.049 92.1926 210.269 91.1929 210.695 90.2755C211.121 89.3581 211.743 88.5453 212.518 87.8945C210.267 86.9954 208.338 85.4407 206.981 83.4321C205.624 81.4234 204.902 79.0535 204.908 76.6295C204.908 69.948 210.27 64.5308 216.883 64.5308C223.495 64.5308 228.857 69.9457 228.857 76.6295C228.864 79.0535 228.142 81.4235 226.785 83.4322C225.428 85.4409 223.499 86.9955 221.247 87.8945V87.8945Z" fill="#56303C"/>
<path d="M221.644 126.469L230.307 156.583C235.037 173.028 222.695 189.421 205.585 189.421H117.182C106.685 189.421 96.4749 186.002 88.0953 179.682C79.7156 173.361 73.6229 164.483 70.7391 154.391L54.3383 97.0001C51.2636 86.2531 59.3369 75.5545 70.5144 75.5545H154.016C185.388 75.5545 212.971 96.3213 221.644 126.469Z" fill="#CFCAC0"/>
<path d="M180.409 126.318L120.596 168.621C113.405 173.706 115.953 185.12 124.581 186.891" stroke="#56303C" stroke-miterlimit="10" stroke-linecap="round"/>
<path d="M162.792 141.601L174.668 138.437" stroke="#56303C" stroke-miterlimit="10" stroke-linecap="round"/>
<path d="M220.668 145.834L227.773 110.489H248.582L233.176 158.753L220.668 145.834Z" fill="#E9EE0D"/>
<path d="M220.668 145.834L227.773 110.489" stroke="#56303C" stroke-miterlimit="10" stroke-linecap="round"/>
<path d="M230.668 169.479L174.742 174.301L231.112 161.505L231.23 161.597C231.456 164.238 231.266 166.897 230.668 169.479Z" fill="#56303C"/>
<path d="M218.996 146.27L171.293 163.261C169.784 163.798 168.519 164.863 167.733 166.259L162.138 176.192L169.262 178.756C169.944 179.002 170.69 178.999 171.37 178.749C172.05 178.498 172.619 178.016 172.978 177.386L174.742 174.299L225.328 165.582C227.136 165.27 228.824 164.469 230.208 163.264C231.591 162.059 232.618 160.498 233.176 158.751C235.249 152.255 230.373 145.624 223.555 145.678L222.288 145.687C221.166 145.696 220.053 145.893 218.996 146.27Z" fill="#B4702F"/>
<path d="M164.307 176.628L168.813 168.628" stroke="#56303C" stroke-miterlimit="10" stroke-linecap="round"/>
<path d="M166.476 177.279L170.982 169.279" stroke="#56303C" stroke-miterlimit="10" stroke-linecap="round"/>
<path d="M168.863 178.147L173.368 170.147" stroke="#56303C" stroke-miterlimit="10" stroke-linecap="round"/>
<path d="M182.054 173.333C184.029 172.993 185.189 171.53 185.697 169.592" stroke="#56303C" stroke-miterlimit="10" stroke-linecap="round"/>
<path d="M223.688 110.923L226.057 119.026" stroke="#56303C" stroke-miterlimit="10" stroke-linecap="round"/>
<path d="M91.2848 75.5545L91.0116 75.2103C90.0822 74.0552 88.9056 73.1232 87.5684 72.4828C86.2312 71.8425 84.7675 71.5101 83.2848 71.5101H75.1394C74.3706 71.5093 73.6197 71.742 72.9862 72.1774C72.3527 72.6129 71.8664 73.2305 71.5917 73.9486L69.5104 79.3883C69.4104 79.6501 69.3755 79.9322 69.4087 80.2104C69.4419 80.4887 69.5422 80.7547 69.701 80.9856C69.8599 81.2164 70.0724 81.4052 70.3204 81.5357C70.5684 81.6661 70.8444 81.7344 71.1246 81.7345H78.3559C78.9945 81.7343 79.6199 81.5531 80.1597 81.2119C80.6995 80.8707 81.1315 80.3836 81.4058 79.8069L82.4606 77.5861C82.75 76.9768 83.2063 76.462 83.7764 76.1016C84.3466 75.7412 85.0073 75.5498 85.6819 75.5497L91.2848 75.5545Z" fill="#B4702F"/>
<path d="M79.1376 75.5119L77.3093 81.5216" stroke="#111111" stroke-miterlimit="10" stroke-linecap="round"/>
<path d="M76.5348 75.5119L74.7065 81.5216" stroke="#56303C" stroke-miterlimit="10" stroke-linecap="round"/>
<path d="M73.7144 75.5119L71.8862 81.5216" stroke="#56303C" stroke-miterlimit="10" stroke-linecap="round"/>
<path d="M194.007 116.291L134.956 157.97L140.699 138.171L124.923 138.042V95.1648C124.923 89.3703 118.805 85.9172 113.961 88.3746C125.057 80.4775 138.735 75.5545 153.532 75.5545C170.314 75.5545 185.657 81.2485 197.425 90.6616C198.973 92.5321 200.117 94.7023 200.786 97.036C201.456 99.3696 201.635 101.816 201.315 104.223C200.994 106.629 200.179 108.944 198.922 111.02C197.664 113.097 195.991 114.891 194.007 116.291V116.291Z" fill="#28AE5E"/>
<path d="M183.672 82.1484L164.869 123.681L139.541 77.0422C144.141 76.0532 148.833 75.5545 153.538 75.5545C164.375 75.5545 174.609 77.9303 183.672 82.1484Z" fill="white"/>
<path d="M161.128 98.1389H164.328" stroke="#56303C" stroke-miterlimit="10" stroke-linecap="round"/>
<path d="M165.104 100.336C166.139 99.9072 166.63 98.7209 166.202 97.686C165.773 96.6512 164.587 96.1598 163.552 96.5884C162.517 97.0171 162.026 98.2035 162.454 99.2383C162.883 100.273 164.069 100.765 165.104 100.336Z" fill="#A0D6FF"/>
<path d="M161.128 110.721H164.328" stroke="#56303C" stroke-miterlimit="10" stroke-linecap="round"/>
<path d="M164.328 112.658C165.448 112.658 166.356 111.75 166.356 110.63C166.356 109.51 165.448 108.602 164.328 108.602C163.207 108.602 162.299 109.51 162.299 110.63C162.299 111.75 163.207 112.658 164.328 112.658Z" fill="#A0D6FF"/>
<path d="M181.741 87.5728C179.94 90.9395 176.567 93.2041 172.705 93.2041C168.54 93.2041 164.945 90.5694 163.275 86.7604C161.604 90.5694 158.009 93.2041 153.844 93.2041C150.119 93.2041 147.501 91.098 145.657 87.9276" stroke="#A0D6FF" stroke-miterlimit="10" stroke-linecap="round"/>
<path d="M163.275 86.7604V93.2041" stroke="#A0D6FF" stroke-miterlimit="10" stroke-linecap="round"/>
<path d="M164.866 123.247V130.688" stroke="#56303C" stroke-miterlimit="10" stroke-linecap="round"/>
<path d="M141.521 133.878L152.411 164.322" stroke="#56303C" stroke-miterlimit="10" stroke-linecap="round"/>
<path d="M143.067 159.011L146.078 126.856" stroke="#56303C" stroke-miterlimit="10" stroke-linecap="round"/>
<path d="M140.049 122.287C140.049 123.863 137.194 126.252 137.194 126.252C137.194 126.252 134.339 123.863 134.339 122.287C134.339 121.53 134.64 120.803 135.175 120.268C135.711 119.733 136.437 119.432 137.194 119.432C137.951 119.432 138.677 119.733 139.212 120.268C139.748 120.803 140.049 121.53 140.049 122.287V122.287Z" fill="#E9EE0D"/>
<path d="M134.338 131.722C134.338 130.146 137.193 127.758 137.193 127.758C137.193 127.758 140.047 130.146 140.047 131.722C140.047 132.479 139.747 133.205 139.211 133.741C138.676 134.276 137.95 134.577 137.193 134.577C136.436 134.577 135.709 134.276 135.174 133.741C134.639 133.205 134.338 132.479 134.338 131.722V131.722Z" fill="#E9EE0D"/>
<path d="M132.73 124.15C134.306 124.15 136.694 127.005 136.694 127.005C136.694 127.005 134.306 129.858 132.73 129.858C132.35 129.866 131.973 129.798 131.62 129.658C131.267 129.518 130.945 129.309 130.674 129.043C130.403 128.778 130.187 128.46 130.04 128.11C129.893 127.76 129.817 127.384 129.817 127.004C129.817 126.625 129.893 126.249 130.04 125.899C130.187 125.548 130.403 125.231 130.674 124.965C130.945 124.7 131.267 124.491 131.62 124.351C131.973 124.211 132.35 124.143 132.73 124.15V124.15Z" fill="#E9EE0D"/>
<path d="M141.658 129.858C140.082 129.858 137.694 127.005 137.694 127.005C137.694 127.005 140.082 124.15 141.658 124.15C142.038 124.143 142.415 124.211 142.768 124.351C143.121 124.491 143.443 124.7 143.714 124.965C143.985 125.231 144.201 125.548 144.348 125.899C144.495 126.249 144.571 126.625 144.571 127.004C144.571 127.384 144.495 127.76 144.348 128.11C144.201 128.46 143.985 128.778 143.714 129.043C143.443 129.309 143.121 129.518 142.768 129.658C142.415 129.798 142.038 129.866 141.658 129.858V129.858Z" fill="#E9EE0D"/>
<path d="M137.194 128.714C138.138 128.714 138.903 127.949 138.903 127.005C138.903 126.061 138.138 125.296 137.194 125.296C136.25 125.296 135.485 126.061 135.485 127.005C135.485 127.949 136.25 128.714 137.194 128.714Z" fill="#56303C"/>
<path d="M148.896 112.372C148.896 113.948 146.042 116.336 146.042 116.336C146.042 116.336 143.187 113.948 143.187 112.372C143.187 111.615 143.488 110.889 144.023 110.354C144.559 109.818 145.285 109.517 146.042 109.517C146.799 109.517 147.525 109.818 148.06 110.354C148.596 110.889 148.896 111.615 148.896 112.372V112.372Z" fill="#E9EE0D"/>
<path d="M143.187 121.803C143.187 120.227 146.042 117.839 146.042 117.839C146.042 117.839 148.896 120.227 148.896 121.803C148.896 122.178 148.823 122.549 148.679 122.895C148.536 123.242 148.325 123.556 148.06 123.822C147.795 124.087 147.481 124.297 147.134 124.44C146.788 124.584 146.417 124.658 146.042 124.658C145.667 124.658 145.296 124.584 144.949 124.44C144.603 124.297 144.288 124.087 144.023 123.822C143.758 123.556 143.548 123.242 143.404 122.895C143.261 122.549 143.187 122.178 143.187 121.803V121.803Z" fill="#E9EE0D"/>
<path d="M141.578 114.235C143.154 114.235 145.541 117.088 145.541 117.088C145.541 117.088 143.154 119.943 141.578 119.943C141.198 119.951 140.82 119.882 140.467 119.742C140.114 119.602 139.793 119.393 139.522 119.128C139.25 118.862 139.035 118.545 138.888 118.195C138.741 117.844 138.665 117.468 138.665 117.089C138.665 116.709 138.741 116.333 138.888 115.983C139.035 115.633 139.25 115.315 139.522 115.05C139.793 114.784 140.114 114.575 140.467 114.435C140.82 114.295 141.198 114.227 141.578 114.235V114.235Z" fill="#E9EE0D"/>
<path d="M150.506 119.944C148.93 119.944 146.542 117.089 146.542 117.089C146.542 117.089 148.93 114.235 150.506 114.235C150.886 114.227 151.263 114.295 151.616 114.435C151.969 114.575 152.291 114.784 152.562 115.05C152.833 115.315 153.049 115.633 153.196 115.983C153.343 116.333 153.419 116.709 153.419 117.089C153.419 117.468 153.343 117.844 153.196 118.195C153.049 118.545 152.833 118.862 152.562 119.128C152.291 119.394 151.969 119.603 151.616 119.742C151.263 119.882 150.886 119.951 150.506 119.943V119.944Z" fill="#E9EE0D"/>
<path d="M146.042 118.87C147.025 118.87 147.823 118.073 147.823 117.089C147.823 116.106 147.025 115.308 146.042 115.308C145.058 115.308 144.261 116.106 144.261 117.089C144.261 118.073 145.058 118.87 146.042 118.87Z" fill="#56303C"/>
<path d="M158.194 126.067C158.194 127.504 155.592 129.68 155.592 129.68C155.592 129.68 152.99 127.504 152.99 126.067C152.99 125.377 153.265 124.716 153.752 124.228C154.24 123.74 154.902 123.466 155.592 123.466C156.282 123.466 156.944 123.74 157.432 124.228C157.92 124.716 158.194 125.377 158.194 126.067Z" fill="#A0D6FF"/>
<path d="M152.993 134.664C152.993 133.229 155.594 131.053 155.594 131.053C155.594 131.053 158.196 133.229 158.196 134.664C158.196 135.354 157.922 136.016 157.434 136.504C156.946 136.992 156.284 137.266 155.594 137.266C154.904 137.266 154.243 136.992 153.755 136.504C153.267 136.016 152.993 135.354 152.993 134.664Z" fill="#A0D6FF"/>
<path d="M151.525 127.765C152.962 127.765 155.138 130.367 155.138 130.367C155.138 130.367 152.962 132.969 151.525 132.969C150.835 132.969 150.173 132.695 149.686 132.207C149.198 131.719 148.924 131.057 148.924 130.367C148.924 129.677 149.198 129.015 149.686 128.527C150.173 128.039 150.835 127.765 151.525 127.765Z" fill="#A0D6FF"/>
<path d="M159.661 132.966C158.224 132.966 156.049 130.365 156.049 130.365C156.049 130.365 158.224 127.763 159.661 127.763C160.351 127.763 161.013 128.037 161.501 128.525C161.989 129.013 162.263 129.675 162.263 130.365C162.263 131.055 161.989 131.716 161.501 132.204C161.013 132.692 160.351 132.966 159.661 132.966Z" fill="#A0D6FF"/>
<path d="M156.214 131.865C157.042 131.522 157.435 130.573 157.092 129.745C156.749 128.917 155.8 128.524 154.972 128.867C154.144 129.21 153.751 130.159 154.094 130.987C154.437 131.815 155.386 132.208 156.214 131.865Z" fill="#56303C"/>
<path d="M140.699 138.171L134.957 157.97L122.255 166.935C107.196 177.564 86.4127 166.794 86.4127 148.363V137.611C86.4127 118.89 97.2615 100.263 113.966 88.3746C118.815 85.9172 124.927 89.3691 124.927 95.1648V138.042L140.699 138.171Z" fill="white"/>
<path d="M134.956 157.97C134.956 157.97 129.552 151.541 134.143 142.496C134.812 141.191 135.83 140.095 137.083 139.332C138.337 138.568 139.777 138.166 141.244 138.171H146.59C149.617 138.171 152.58 139.049 155.118 140.698L158.498 142.894C158.795 143.087 159.048 143.342 159.24 143.641C159.432 143.94 159.558 144.276 159.609 144.627C159.661 144.978 159.637 145.337 159.54 145.678C159.442 146.019 159.273 146.336 159.044 146.607L154.061 152.497C153.64 152.994 153.044 153.309 152.397 153.378C151.75 153.446 151.101 153.261 150.586 152.863L149.391 151.936C148.579 151.306 147.586 150.955 146.559 150.932C145.532 150.909 144.525 151.217 143.686 151.809L134.956 157.97Z" fill="#B4702F"/>
<path d="M151.708 142.321L158.643 146.963" stroke="#56303C" stroke-miterlimit="10" stroke-linecap="round"/>
<path d="M149.974 144.274L156.908 148.915" stroke="#56303C" stroke-miterlimit="10" stroke-linecap="round"/>
<path d="M148.021 146.66L154.956 151.302" stroke="#56303C" stroke-miterlimit="10" stroke-linecap="round"/>
<path d="M106.945 138.042H124.92C124.92 138.042 116.398 149.811 126.143 164.189" stroke="#A0D6FF" stroke-miterlimit="10" stroke-linecap="round"/>
<path d="M128.716 157.97C129.465 157.97 130.073 157.363 130.073 156.614C130.073 155.865 129.465 155.257 128.716 155.257C127.967 155.257 127.36 155.865 127.36 156.614C127.36 157.363 127.967 157.97 128.716 157.97Z" stroke="#A0D6FF" stroke-miterlimit="10" stroke-linecap="round"/>
<path d="M113.961 138.042L108.698 133.709" stroke="#A0D6FF" stroke-miterlimit="10" stroke-linecap="round"/>
<path d="M175.609 81.6754L169.329 84.7264C168.115 85.3164 166.784 85.623 165.435 85.623C164.085 85.623 162.754 85.3164 161.54 84.7264L155.269 81.6754C153.473 80.8021 152.022 79.3506 151.15 77.554C150.277 75.7574 150.033 73.7197 150.458 71.768H148.437C147.413 71.768 146.431 71.3613 145.707 70.6374C144.983 69.9136 144.577 68.9318 144.577 67.9081V66.7161C144.577 65.8351 144.879 64.9809 145.432 64.2951C145.985 63.6094 146.756 63.1334 147.617 62.9461C148.478 62.7589 149.377 62.8716 150.165 63.2657C150.953 63.6598 151.582 64.3114 151.949 65.1125L152.522 62.5523C158.357 62.0143 163.194 58.5955 165.089 53.9753V49.0275C165.095 48.9297 165.137 48.8377 165.208 48.7704C165.28 48.7031 165.374 48.6656 165.472 48.6656C165.57 48.6656 165.664 48.7031 165.735 48.7704C165.806 48.8377 165.849 48.9297 165.854 49.0275V52.9642C167.392 57.9735 172.298 61.7967 178.356 62.5074L180.419 71.7112C180.857 73.671 180.62 75.7214 179.748 77.53C178.875 79.3386 177.416 80.7993 175.609 81.6754V81.6754Z" fill="#B4702F"/>
<path d="M160.952 63.5768C162.549 63.0859 163.699 62.2153 163.52 61.6322C163.341 61.0491 161.901 60.9743 160.303 61.4652C158.705 61.9561 157.556 62.8267 157.735 63.4098C157.914 63.9929 159.354 64.0676 160.952 63.5768Z" fill="#EDE0C4"/>
<path d="M173.774 63.4335C173.953 62.8504 172.803 61.9798 171.206 61.4889C169.608 60.998 168.168 61.0728 167.989 61.6559C167.809 62.239 168.959 63.1096 170.557 63.6005C172.154 64.0913 173.595 64.0166 173.774 63.4335Z" fill="#EDE0C4"/>
<path d="M169.987 68.7855C170.309 68.225 171.062 67.8324 171.94 67.8324H172.823" stroke="#56303C" stroke-miterlimit="10" stroke-linecap="round"/>
<path d="M160.891 68.7855C160.569 68.225 159.816 67.8324 158.939 67.8324H158.057" stroke="#56303C" stroke-miterlimit="10" stroke-linecap="round"/>
<path d="M162.229 75.7295C162.229 75.7295 165.303 77.1769 168.678 75.7295" stroke="#56303C" stroke-miterlimit="10" stroke-linecap="round"/>
<path d="M168.415 74.8769L169.551 76.4792" stroke="#56303C" stroke-miterlimit="10" stroke-linecap="round"/>
<path d="M162.584 74.8402L161.329 76.3728" stroke="#56303C" stroke-miterlimit="10" stroke-linecap="round"/>
<path d="M163.576 80.8949C164.091 80.5949 164.675 80.4338 165.271 80.4276C165.868 80.4214 166.455 80.5702 166.977 80.8594" stroke="#56303C" stroke-miterlimit="10" stroke-linecap="round"/>
<path d="M167.28 64.5118C166.657 65.7641 165.844 68.7855 167.044 71.516" stroke="#56303C" stroke-miterlimit="10" stroke-linecap="round"/>
<path d="M163.22 72.8311C163.22 71.8673 164.214 71.0856 165.439 71.0856C166.664 71.0856 167.659 71.8673 167.659 72.8311" stroke="#56303C" stroke-miterlimit="10" stroke-linecap="round"/>
<path d="M150.118 68.309C150.118 68.309 150.466 65.8942 147.196 65.4377" stroke="#56303C" stroke-miterlimit="10" stroke-linecap="round"/>
<path d="M147.949 67.9802L149.271 66.5079" stroke="#56303C" stroke-miterlimit="10" stroke-linecap="round"/>
<path d="M163.142 68.7856H167.609" stroke="#8CD6FF" stroke-linecap="round" stroke-linejoin="round"/>
<path d="M156.428 64.7838H161.223C161.733 64.7838 162.221 64.986 162.581 65.346C162.941 65.7059 163.143 66.1941 163.143 66.7031V69.9906C163.143 70.5197 162.933 71.0271 162.558 71.4012C162.184 71.7754 161.677 71.9856 161.148 71.9856H156.429C156.177 71.9856 155.928 71.9359 155.695 71.8395C155.462 71.743 155.25 71.6016 155.072 71.4234C154.894 71.2452 154.753 71.0336 154.656 70.8008C154.56 70.5679 154.51 70.3183 154.51 70.0663V66.7019C154.51 66.1933 154.713 65.7056 155.072 65.346C155.432 64.9863 155.92 64.7841 156.428 64.7838Z" stroke="#A0D6FF" stroke-miterlimit="10" stroke-linecap="round"/>
<path d="M169.877 64.7838H174.673C174.925 64.7838 175.174 64.8335 175.407 64.9299C175.64 65.0264 175.851 65.1677 176.03 65.346C176.208 65.5242 176.349 65.7358 176.446 65.9686C176.542 66.2015 176.592 66.4511 176.592 66.7031V69.9906C176.592 70.5197 176.382 71.0271 176.008 71.4012C175.633 71.7754 175.126 71.9856 174.597 71.9856H169.879C169.369 71.9856 168.881 71.7833 168.521 71.4234C168.161 71.0635 167.959 70.5753 167.959 70.0663V66.7019C167.96 66.1933 168.162 65.7056 168.521 65.346C168.881 64.9863 169.369 64.7841 169.877 64.7838V64.7838Z" stroke="#A0D6FF" stroke-miterlimit="10" stroke-linecap="round"/>
</svg>
