<svg width="96" height="96" viewBox="0 0 96 96" fill="none" xmlns="http://www.w3.org/2000/svg">
<path d="M5.59 52H2.86L6.57 42.2H9.37L13.08 52H10.35L9.72 50.25H6.22L5.59 52ZM6.85 48.43H9.09L7.97 45.14L6.85 48.43ZM14.3395 54.52C13.4715 54.52 12.5848 54.4733 11.6795 54.38V52.56H13.4995C13.6395 52.56 13.7561 52.5133 13.8495 52.42C13.9428 52.3267 13.9895 52.21 13.9895 52.07V44.86H16.4395V52.42C16.4395 53.0547 16.2481 53.5633 15.8655 53.946C15.4828 54.3287 14.9741 54.52 14.3395 54.52ZM13.9895 42.06H16.4395V44.02H13.9895V42.06ZM21.2667 50.11C21.7614 50.11 22.3214 50.0167 22.9467 49.83V44.58H25.3967V52H23.2267L23.0867 51.3C22.6481 51.5893 22.1954 51.804 21.7287 51.944C21.2714 52.0747 20.8841 52.14 20.5667 52.14H19.9367C19.3021 52.14 18.7934 51.9487 18.4107 51.566C18.0281 51.1833 17.8367 50.6747 17.8367 50.04V44.58H20.2867V49.62C20.2867 49.76 20.3334 49.8767 20.4267 49.97C20.5201 50.0633 20.6367 50.11 20.7767 50.11H21.2667ZM32.0418 52L31.9018 51.3C31.4631 51.5893 31.0105 51.804 30.5438 51.944C30.0865 52.0747 29.6991 52.14 29.3818 52.14H28.7518C28.1171 52.14 27.6085 51.9487 27.2258 51.566C26.8431 51.1833 26.6518 50.6747 26.6518 50.04V46.82C26.6518 46.12 26.8478 45.574 27.2398 45.182C27.6411 44.7807 28.1918 44.58 28.8918 44.58H31.7618V42.2H34.2118V52H32.0418ZM30.0818 50.11C30.5765 50.11 31.1365 50.0167 31.7618 49.83V46.47H29.6618C29.2885 46.47 29.1018 46.6567 29.1018 47.03V49.62C29.1018 49.76 29.1485 49.8767 29.2418 49.97C29.3351 50.0633 29.4518 50.11 29.5918 50.11H30.0818ZM38.5502 50.18C39.0448 50.18 39.6048 50.0867 40.2302 49.9V49.06H38.2002C38.0602 49.06 37.9435 49.1067 37.8502 49.2C37.7568 49.2933 37.7102 49.41 37.7102 49.55V49.69C37.7102 49.83 37.7568 49.9467 37.8502 50.04C37.9435 50.1333 38.0602 50.18 38.2002 50.18H38.5502ZM35.9602 44.72C37.6682 44.5333 39.2082 44.44 40.5802 44.44C41.2148 44.44 41.7235 44.6313 42.1062 45.014C42.4888 45.3967 42.6802 45.9053 42.6802 46.54V52H40.5102L40.3702 51.3C39.9315 51.5893 39.4788 51.804 39.0122 51.944C38.5548 52.0747 38.1675 52.14 37.8502 52.14H37.3602C36.7255 52.14 36.2168 51.9487 35.8342 51.566C35.4515 51.1833 35.2602 50.6747 35.2602 50.04V49.41C35.2602 48.7753 35.4515 48.2667 35.8342 47.884C36.2168 47.5013 36.7255 47.31 37.3602 47.31H40.2302V46.75C40.2302 46.61 40.1835 46.4933 40.0902 46.4C39.9968 46.3067 39.8802 46.26 39.7402 46.26C39.1335 46.26 38.4615 46.288 37.7242 46.344C36.9962 46.4 36.4082 46.442 35.9602 46.47V44.72Z" fill="#28AE5E"/>
<path d="M51.6363 51.86C49.555 52.0467 47.8283 52.14 46.4563 52.14C45.5417 52.14 44.8697 51.9253 44.4403 51.496C44.011 51.0667 43.7963 50.3947 43.7963 49.48V45C43.7963 44.02 44.0157 43.3107 44.4543 42.872C44.9023 42.424 45.6163 42.2 46.5963 42.2H51.6363V44.16H47.1563C46.5963 44.16 46.3163 44.44 46.3163 45V49.48C46.3163 49.6947 46.377 49.8673 46.4983 49.998C46.629 50.1193 46.7923 50.18 46.9883 50.18C47.1843 50.18 47.399 50.18 47.6323 50.18C47.8657 50.1707 48.1083 50.1613 48.3603 50.152C48.6123 50.1427 48.8643 50.1333 49.1163 50.124C49.3777 50.1147 49.709 50.096 50.1103 50.068C50.521 50.04 51.0297 50.0073 51.6363 49.97V51.86ZM56.048 50.11C56.5426 50.11 57.1026 50.0167 57.728 49.83V44.58H60.178V52H58.008L57.868 51.3C57.4293 51.5893 56.9766 51.804 56.51 51.944C56.0526 52.0747 55.6653 52.14 55.348 52.14H54.718C54.0833 52.14 53.5746 51.9487 53.192 51.566C52.8093 51.1833 52.618 50.6747 52.618 50.04V44.58H55.068V49.62C55.068 49.76 55.1146 49.8767 55.208 49.97C55.3013 50.0633 55.418 50.11 55.558 50.11H56.048ZM64.653 44.86V52H62.203V46.75H61.153V44.86H64.653ZM62.203 42.06H64.653V44.02H62.203V42.06ZM71.2374 52C70.3321 52.0933 69.4454 52.14 68.5774 52.14C67.9428 52.14 67.4341 51.9487 67.0514 51.566C66.6688 51.1833 66.4774 50.6747 66.4774 50.04V46.47H65.6374V44.58H66.4774L66.7574 42.9H68.9274V44.58H70.6774V46.47H68.9274V49.69C68.9274 49.83 68.9741 49.9467 69.0674 50.04C69.1608 50.1333 69.2774 50.18 69.4174 50.18H71.2374V52ZM74.9567 46.19C74.5834 46.19 74.3967 46.3767 74.3967 46.75V47.52H76.7767V46.75C76.7767 46.3767 76.5901 46.19 76.2167 46.19H74.9567ZM78.9467 51.86C77.1454 52.0467 75.5121 52.14 74.0467 52.14C73.4121 52.14 72.9034 51.9487 72.5207 51.566C72.1381 51.1833 71.9467 50.6747 71.9467 50.04V46.68C71.9467 45.98 72.1427 45.434 72.5347 45.042C72.9361 44.6407 73.4867 44.44 74.1867 44.44H76.9867C77.6867 44.44 78.2327 44.6407 78.6247 45.042C79.0261 45.434 79.2267 45.98 79.2267 46.68V49.27H74.3967V49.83C74.3967 49.97 74.4434 50.0867 74.5367 50.18C74.6301 50.2733 74.7467 50.32 74.8867 50.32C75.8107 50.32 77.1641 50.25 78.9467 50.11V51.86ZM85.3113 51.44C84.4059 51.6267 83.6126 51.72 82.9313 51.72H82.4413C81.8066 51.72 81.2979 51.5287 80.9153 51.146C80.5326 50.7633 80.3413 50.2547 80.3413 49.62V46.82C80.3413 46.12 80.5373 45.574 80.9293 45.182C81.3306 44.7807 81.8813 44.58 82.5813 44.58H87.7613V52.42C87.7613 53.0547 87.5699 53.5633 87.1873 53.946C86.8046 54.3287 86.2959 54.52 85.6613 54.52C84.1959 54.52 82.5626 54.4267 80.7613 54.24V52.42C82.5439 52.56 83.8973 52.63 84.8213 52.63C84.9613 52.63 85.0779 52.5833 85.1713 52.49C85.2646 52.3967 85.3113 52.28 85.3113 52.14V51.44ZM83.6313 49.83C84.2193 49.83 84.7793 49.7833 85.3113 49.69V46.47H83.3513C82.9779 46.47 82.7913 46.6567 82.7913 47.03V49.34C82.7913 49.48 82.8379 49.5967 82.9313 49.69C83.0246 49.7833 83.1413 49.83 83.2812 49.83H83.6313ZM92.2429 44.86V52H89.7929V46.75H88.7429V44.86H92.2429ZM89.7929 42.06H92.2429V44.02H89.7929V42.06Z" fill="#EFF321"/>
</svg>
