<svg width="128" height="128" viewBox="0 0 128 128" fill="none" xmlns="http://www.w3.org/2000/svg">
<path d="M9.33 70H5.82L10.59 57.4H14.19L18.96 70H15.45L14.64 67.75H10.14L9.33 70ZM10.95 65.41H13.83L12.39 61.18L10.95 65.41ZM20.5793 73.24C19.4633 73.24 18.3233 73.18 17.1593 73.06V70.72H19.4993C19.6793 70.72 19.8293 70.66 19.9493 70.54C20.0693 70.42 20.1293 70.27 20.1293 70.09V60.82H23.2793V70.54C23.2793 71.356 23.0333 72.01 22.5413 72.502C22.0493 72.994 21.3953 73.24 20.5793 73.24ZM20.1293 57.22H23.2793V59.74H20.1293V57.22ZM29.4858 67.57C30.1218 67.57 30.8418 67.45 31.6458 67.21V60.46H34.7958V70H32.0058L31.8258 69.1C31.2618 69.472 30.6798 69.748 30.0798 69.928C29.4918 70.096 28.9938 70.18 28.5858 70.18H27.7758C26.9598 70.18 26.3058 69.934 25.8138 69.442C25.3218 68.95 25.0758 68.296 25.0758 67.48V60.46H28.2258V66.94C28.2258 67.12 28.2858 67.27 28.4058 67.39C28.5258 67.51 28.6758 67.57 28.8558 67.57H29.4858ZM43.3395 70L43.1595 69.1C42.5955 69.472 42.0135 69.748 41.4135 69.928C40.8255 70.096 40.3275 70.18 39.9195 70.18H39.1095C38.2935 70.18 37.6395 69.934 37.1475 69.442C36.6555 68.95 36.4095 68.296 36.4095 67.48V63.34C36.4095 62.44 36.6615 61.738 37.1655 61.234C37.6815 60.718 38.3895 60.46 39.2895 60.46H42.9795V57.4H46.1295V70H43.3395ZM40.8195 67.57C41.4555 67.57 42.1755 67.45 42.9795 67.21V62.89H40.2795C39.7995 62.89 39.5595 63.13 39.5595 63.61V66.94C39.5595 67.12 39.6195 67.27 39.7395 67.39C39.8595 67.51 40.0095 67.57 40.1895 67.57H40.8195ZM51.7073 67.66C52.3433 67.66 53.0633 67.54 53.8673 67.3V66.22H51.2573C51.0773 66.22 50.9273 66.28 50.8073 66.4C50.6873 66.52 50.6273 66.67 50.6273 66.85V67.03C50.6273 67.21 50.6873 67.36 50.8073 67.48C50.9273 67.6 51.0773 67.66 51.2573 67.66H51.7073ZM48.3773 60.64C50.5733 60.4 52.5533 60.28 54.3173 60.28C55.1333 60.28 55.7873 60.526 56.2793 61.018C56.7713 61.51 57.0173 62.164 57.0173 62.98V70H54.2273L54.0473 69.1C53.4833 69.472 52.9013 69.748 52.3013 69.928C51.7133 70.096 51.2153 70.18 50.8073 70.18H50.1773C49.3613 70.18 48.7073 69.934 48.2153 69.442C47.7233 68.95 47.4773 68.296 47.4773 67.48V66.67C47.4773 65.854 47.7233 65.2 48.2153 64.708C48.7073 64.216 49.3613 63.97 50.1773 63.97H53.8673V63.25C53.8673 63.07 53.8073 62.92 53.6873 62.8C53.5673 62.68 53.4173 62.62 53.2373 62.62C52.4573 62.62 51.5933 62.656 50.6453 62.728C49.7093 62.8 48.9533 62.854 48.3773 62.89V60.64Z" fill="white"/>
<path d="M68.5324 69.82C65.8564 70.06 63.6364 70.18 61.8724 70.18C60.6964 70.18 59.8324 69.904 59.2804 69.352C58.7284 68.8 58.4524 67.936 58.4524 66.76V61C58.4524 59.74 58.7344 58.828 59.2984 58.264C59.8744 57.688 60.7924 57.4 62.0524 57.4H68.5324V59.92H62.7724C62.0524 59.92 61.6924 60.28 61.6924 61V66.76C61.6924 67.036 61.7704 67.258 61.9264 67.426C62.0944 67.582 62.3044 67.66 62.5564 67.66C62.8084 67.66 63.0844 67.66 63.3844 67.66C63.6844 67.648 63.9964 67.636 64.3204 67.624C64.6444 67.612 64.9684 67.6 65.2924 67.588C65.6284 67.576 66.0544 67.552 66.5704 67.516C67.0984 67.48 67.7524 67.438 68.5324 67.39V69.82ZM74.2045 67.57C74.8405 67.57 75.5605 67.45 76.3645 67.21V60.46H79.5145V70H76.7245L76.5445 69.1C75.9805 69.472 75.3985 69.748 74.7985 69.928C74.2105 70.096 73.7125 70.18 73.3045 70.18H72.4945C71.6785 70.18 71.0245 69.934 70.5325 69.442C70.0405 68.95 69.7945 68.296 69.7945 67.48V60.46H72.9445V66.94C72.9445 67.12 73.0045 67.27 73.1245 67.39C73.2445 67.51 73.3945 67.57 73.5745 67.57H74.2045ZM85.2682 60.82V70H82.1182V63.25H80.7682V60.82H85.2682ZM82.1182 57.22H85.2682V59.74H82.1182V57.22ZM93.7338 70C92.5698 70.12 91.4298 70.18 90.3138 70.18C89.4978 70.18 88.8438 69.934 88.3518 69.442C87.8598 68.95 87.6138 68.296 87.6138 67.48V62.89H86.5338V60.46H87.6138L87.9738 58.3H90.7638V60.46H93.0138V62.89H90.7638V67.03C90.7638 67.21 90.8238 67.36 90.9438 67.48C91.0638 67.6 91.2138 67.66 91.3938 67.66H93.7338V70ZM98.5158 62.53C98.0358 62.53 97.7958 62.77 97.7958 63.25V64.24H100.856V63.25C100.856 62.77 100.616 62.53 100.136 62.53H98.5158ZM103.646 69.82C101.33 70.06 99.2298 70.18 97.3458 70.18C96.5298 70.18 95.8758 69.934 95.3838 69.442C94.8918 68.95 94.6458 68.296 94.6458 67.48V63.16C94.6458 62.26 94.8978 61.558 95.4018 61.054C95.9178 60.538 96.6258 60.28 97.5258 60.28H101.126C102.026 60.28 102.728 60.538 103.232 61.054C103.748 61.558 104.006 62.26 104.006 63.16V66.49H97.7958V67.21C97.7958 67.39 97.8558 67.54 97.9758 67.66C98.0958 67.78 98.2458 67.84 98.4258 67.84C99.6138 67.84 101.354 67.75 103.646 67.57V69.82ZM111.829 69.28C110.665 69.52 109.645 69.64 108.769 69.64H108.139C107.323 69.64 106.669 69.394 106.177 68.902C105.685 68.41 105.439 67.756 105.439 66.94V63.34C105.439 62.44 105.691 61.738 106.195 61.234C106.711 60.718 107.419 60.46 108.319 60.46H114.979V70.54C114.979 71.356 114.733 72.01 114.241 72.502C113.749 72.994 113.095 73.24 112.279 73.24C110.395 73.24 108.295 73.12 105.979 72.88V70.54C108.271 70.72 110.011 70.81 111.199 70.81C111.379 70.81 111.529 70.75 111.649 70.63C111.769 70.51 111.829 70.36 111.829 70.18V69.28ZM109.669 67.21C110.425 67.21 111.145 67.15 111.829 67.03V62.89H109.309C108.829 62.89 108.589 63.13 108.589 63.61V66.58C108.589 66.76 108.649 66.91 108.769 67.03C108.889 67.15 109.039 67.21 109.219 67.21H109.669ZM120.741 60.82V70H117.591V63.25H116.241V60.82H120.741ZM117.591 57.22H120.741V59.74H117.591V57.22Z" fill="#EFF321"/>
</svg>
